<svg xmlns="http://www.w3.org/2000/svg" width="20" height="20" viewBox="0 0 20 20">
    <path d="M18677.125 5736.875a3.129 3.129 0 0 1-3.125-3.126v-9.375a3.129 3.129 0 0 1 3.125-3.124v-.312a.938.938 0 1 1 1.875 0v.312h6.875v-.312a.938.938 0 1 1 1.875 0v.312a3.129 3.129 0 0 1 3.125 3.124v9.375a3.129 3.129 0 0 1-3.125 3.126zm-1.25-12.5v9.375a1.249 1.249 0 0 0 1.25 1.249h10.625a1.249 1.249 0 0 0 1.25-1.249v-5h-13.125v-1.874H18689v-2.5a1.25 1.25 0 0 0-1.25-1.25h-.053a.939.939 0 0 1-1.77 0h-6.98a.939.939 0 0 1-1.77 0h-.053a1.25 1.25 0 0 0-1.249 1.248z" transform="translate(-18672.438 -5718.438)" style="fill:#7d8585"/>
</svg>
